<?xml version="1.0" encoding="UTF-8" standalone="no"?>
<!-- Created with Inkscape (http://www.inkscape.org/) -->

<svg
   width="180mm"
   height="55mm"
   viewBox="0 0 180 55"
   version="1.1"
   id="svg1"
   inkscape:version="1.3.2 (091e20e, 2023-11-25, custom)"
   sodipodi:docname="kmcpy_logo.svg"
   xmlns:inkscape="http://www.inkscape.org/namespaces/inkscape"
   xmlns:sodipodi="http://sodipodi.sourceforge.net/DTD/sodipodi-0.dtd"
   xmlns="http://www.w3.org/2000/svg"
   xmlns:svg="http://www.w3.org/2000/svg">
  <sodipodi:namedview
     id="namedview1"
     pagecolor="#ffffff"
     bordercolor="#bdbdbd"
     borderopacity="1"
     inkscape:showpageshadow="2"
     inkscape:pageopacity="0.0"
     inkscape:pagecheckerboard="0"
     inkscape:deskcolor="#d1d1d1"
     inkscape:document-units="mm"
     inkscape:zoom="1.4503086"
     inkscape:cx="352.68355"
     inkscape:cy="57.918706"
     inkscape:window-width="1920"
     inkscape:window-height="1010"
     inkscape:window-x="-6"
     inkscape:window-y="-6"
     inkscape:window-maximized="1"
     inkscape:current-layer="layer1" />
  <defs
     id="defs1">
    <clipPath
       clipPathUnits="userSpaceOnUse"
       id="clipPath2">
      <path
         d="M 0,551.442 H 606.246 V 0 H 0 Z"
         transform="matrix(1,0,0,-1,-97.780802,498.06251)"
         id="path2" />
    </clipPath>
    <clipPath
       clipPathUnits="userSpaceOnUse"
       id="clipPath4">
      <path
         d="M 0,551.442 H 606.246 V 0 H 0 Z"
         transform="matrix(1,0,0,-1,-198.26907,498.06251)"
         id="path4" />
    </clipPath>
    <clipPath
       clipPathUnits="userSpaceOnUse"
       id="clipPath12">
      <path
         d="M 0,551.442 H 606.246 V 0 H 0 Z"
         transform="translate(-27.419101,-503.06341)"
         id="path12" />
    </clipPath>
    <clipPath
       clipPathUnits="userSpaceOnUse"
       id="clipPath14">
      <path
         d="M 0,551.442 H 606.246 V 0 H 0 Z"
         transform="translate(-27.7174,-503.06341)"
         id="path14" />
    </clipPath>
    <clipPath
       clipPathUnits="userSpaceOnUse"
       id="clipPath16">
      <path
         d="M 0,551.442 H 606.246 V 0 H 0 Z"
         transform="translate(-36.429101,-519.05161)"
         id="path16" />
    </clipPath>
    <clipPath
       clipPathUnits="userSpaceOnUse"
       id="clipPath18">
      <path
         d="M 0,551.442 H 606.246 V 0 H 0 Z"
         transform="translate(-36.727501,-519.05161)"
         id="path18" />
    </clipPath>
    <clipPath
       clipPathUnits="userSpaceOnUse"
       id="clipPath20">
      <path
         d="M 0,551.442 H 606.246 V 0 H 0 Z"
         transform="translate(-54.964402,-519.05161)"
         id="path20" />
    </clipPath>
    <clipPath
       clipPathUnits="userSpaceOnUse"
       id="clipPath22">
      <path
         d="M 0,551.442 H 606.246 V 0 H 0 Z"
         transform="translate(-55.262701,-519.05161)"
         id="path22" />
    </clipPath>
    <clipPath
       clipPathUnits="userSpaceOnUse"
       id="clipPath24">
      <path
         d="M 0,551.442 H 606.246 V 0 H 0 Z"
         transform="translate(-63.882602,-503.06341)"
         id="path24" />
    </clipPath>
    <clipPath
       clipPathUnits="userSpaceOnUse"
       id="clipPath26">
      <path
         d="M 0,551.442 H 606.246 V 0 H 0 Z"
         transform="translate(-64.180901,-503.06341)"
         id="path26" />
    </clipPath>
    <clipPath
       clipPathUnits="userSpaceOnUse"
       id="clipPath28">
      <path
         d="M 0,551.442 H 606.246 V 0 H 0 Z"
         transform="translate(-54.964301,-487.21681)"
         id="path28" />
    </clipPath>
    <clipPath
       clipPathUnits="userSpaceOnUse"
       id="clipPath30">
      <path
         d="M 0,551.442 H 606.246 V 0 H 0 Z"
         transform="translate(-55.262701,-487.21681)"
         id="path30" />
    </clipPath>
    <clipPath
       clipPathUnits="userSpaceOnUse"
       id="clipPath32">
      <path
         d="M 0,551.442 H 606.246 V 0 H 0 Z"
         transform="translate(-36.429101,-487.07531)"
         id="path32" />
    </clipPath>
    <clipPath
       clipPathUnits="userSpaceOnUse"
       id="clipPath34">
      <path
         d="M 0,551.442 H 606.246 V 0 H 0 Z"
         transform="translate(-36.727401,-487.07531)"
         id="path34" />
    </clipPath>
    <clipPath
       clipPathUnits="userSpaceOnUse"
       id="clipPath36">
      <path
         d="M 0,551.442 H 606.246 V 0 H 0 Z"
         transform="translate(-67.434902,-527.17581)"
         id="path36" />
    </clipPath>
    <clipPath
       clipPathUnits="userSpaceOnUse"
       id="clipPath38">
      <path
         d="M 0,551.442 H 606.246 V 0 H 0 Z"
         transform="translate(-41.490801,-511.18771)"
         id="path38" />
    </clipPath>
    <clipPath
       clipPathUnits="userSpaceOnUse"
       id="clipPath40">
      <path
         d="M 0,551.442 H 606.246 V 0 H 0 Z"
         transform="translate(-41.789101,-511.18771)"
         id="path40" />
    </clipPath>
    <clipPath
       clipPathUnits="userSpaceOnUse"
       id="clipPath42">
      <path
         d="M 0,551.442 H 606.246 V 0 H 0 Z"
         transform="translate(-50.500801,-527.17581)"
         id="path42" />
    </clipPath>
    <clipPath
       clipPathUnits="userSpaceOnUse"
       id="clipPath44">
      <path
         d="M 0,551.442 H 606.246 V 0 H 0 Z"
         transform="translate(-50.799101,-527.17581)"
         id="path44" />
    </clipPath>
    <clipPath
       clipPathUnits="userSpaceOnUse"
       id="clipPath46">
      <path
         d="M 0,551.442 H 606.246 V 0 H 0 Z"
         transform="translate(-69.036002,-527.17581)"
         id="path46" />
    </clipPath>
    <clipPath
       clipPathUnits="userSpaceOnUse"
       id="clipPath48">
      <path
         d="M 0,551.442 H 606.246 V 0 H 0 Z"
         transform="translate(-69.334301,-527.17581)"
         id="path48" />
    </clipPath>
    <clipPath
       clipPathUnits="userSpaceOnUse"
       id="clipPath50">
      <path
         d="M 0,551.442 H 606.246 V 0 H 0 Z"
         transform="translate(-77.954199,-511.18771)"
         id="path50" />
    </clipPath>
    <clipPath
       clipPathUnits="userSpaceOnUse"
       id="clipPath52">
      <path
         d="M 0,551.442 H 606.246 V 0 H 0 Z"
         transform="translate(-78.252504,-511.18771)"
         id="path52" />
    </clipPath>
    <clipPath
       clipPathUnits="userSpaceOnUse"
       id="clipPath54">
      <path
         d="M 0,551.442 H 606.246 V 0 H 0 Z"
         transform="translate(-69.036002,-495.34111)"
         id="path54" />
    </clipPath>
    <clipPath
       clipPathUnits="userSpaceOnUse"
       id="clipPath56">
      <path
         d="M 0,551.442 H 606.246 V 0 H 0 Z"
         transform="translate(-69.334301,-495.34111)"
         id="path56" />
    </clipPath>
    <clipPath
       clipPathUnits="userSpaceOnUse"
       id="clipPath58">
      <path
         d="M 0,551.442 H 606.246 V 0 H 0 Z"
         transform="translate(-50.500801,-495.19951)"
         id="path58" />
    </clipPath>
    <clipPath
       clipPathUnits="userSpaceOnUse"
       id="clipPath60">
      <path
         d="M 0,551.442 H 606.246 V 0 H 0 Z"
         transform="translate(-50.799101,-495.19951)"
         id="path60" />
    </clipPath>
    <clipPath
       clipPathUnits="userSpaceOnUse"
       id="clipPath62">
      <path
         d="M 0,551.442 H 606.246 V 0 H 0 Z"
         transform="translate(-35.354701,-524.51101)"
         id="path62" />
    </clipPath>
    <clipPath
       clipPathUnits="userSpaceOnUse"
       id="clipPath64">
      <path
         d="M 0,551.442 H 606.246 V 0 H 0 Z"
         transform="translate(-36.423201,-524.55101)"
         id="path64" />
    </clipPath>
    <clipPath
       clipPathUnits="userSpaceOnUse"
       id="clipPath66">
      <path
         d="M 0,551.442 H 606.246 V 0 H 0 Z"
         transform="translate(-42.930201,-527.75721)"
         id="path66" />
    </clipPath>
    <clipPath
       clipPathUnits="userSpaceOnUse"
       id="clipPath68">
      <path
         d="M 0,551.442 H 606.246 V 0 H 0 Z"
         transform="translate(-66.421301,-490.50561)"
         id="path68" />
    </clipPath>
    <clipPath
       clipPathUnits="userSpaceOnUse"
       id="clipPath70">
      <path
         d="M 0,551.442 H 606.246 V 0 H 0 Z"
         transform="translate(-65.352802,-490.46571)"
         id="path70" />
    </clipPath>
    <clipPath
       clipPathUnits="userSpaceOnUse"
       id="clipPath72">
      <path
         d="M 0,551.442 H 606.246 V 0 H 0 Z"
         transform="translate(-58.845701,-487.25951)"
         id="path72" />
    </clipPath>
    <clipPath
       clipPathUnits="userSpaceOnUse"
       id="clipPath74">
      <path
         d="M 0,551.442 H 606.246 V 0 H 0 Z"
         transform="translate(-75.476304,-479.89981)"
         id="path74" />
    </clipPath>
    <clipPath
       clipPathUnits="userSpaceOnUse"
       id="clipPath76">
      <path
         d="M 0,551.442 H 606.246 V 0 H 0 Z"
         id="path76" />
    </clipPath>
    <clipPath
       clipPathUnits="userSpaceOnUse"
       id="clipPath78">
      <path
         d="M 0,551.442 H 606.246 V 0 H 0 Z"
         id="path78" />
    </clipPath>
  </defs>
  <g
     inkscape:label="Layer 1"
     inkscape:groupmode="layer"
     id="layer1">
    <path
       id="path1"
       d="M 3.328575,-5.9375e-4 V -35.215437 h 2.9296875 v 21.914062 L 18.680138,-25.336531 H 22.68795 L 13.207481,-16.184187 23.81295,-5.9375e-4 H 20.543419 L 11.051231,-14.133406 6.2582625,-9.5865312 v 9.58593745 z m 24.928711,0 V -35.215437 h 5.085937 L 44.886192,-4.16075 h 0.105469 l 11.34375,-31.054687 h 5.039062 V -5.9375e-4 H 58.046348 V -31.395125 h -0.09375 L 46.40963,-5.9375e-4 H 43.280723 L 31.69088,-31.395125 H 31.585411 V -5.9375e-4 Z M 94.12838,-24.984969 c -0.679688,-3 -1.951172,-5.135742 -3.808594,-6.410156 -1.860352,-1.271484 -4.289063,-1.910156 -7.289063,-1.910156 -2.118164,0 -3.943359,0.427734 -5.472656,1.277344 -1.532226,0.84375 -2.797851,1.986328 -3.796875,3.421875 -0.993164,1.429687 -1.728515,3.082031 -2.203125,4.957031 -0.46875,1.875 -0.703125,3.855469 -0.703125,5.941406 0,1.962891 0.202149,3.887695 0.609375,5.777344 0.404297,1.892578 1.081055,3.5800779 2.027344,5.0624998 0.943359,1.4853515 2.214844,2.6835937 3.808594,3.5976562 1.599609,0.9082031 3.609375,1.359375 6.023437,1.359375 1.5,0 2.865235,-0.2402344 4.101563,-0.7265625 1.242187,-0.4921875 2.326172,-1.1660156 3.257812,-2.0273437 0.928711,-0.8671875 1.710938,-1.8867188 2.34375,-3.0585938 0.638672,-1.1777344 1.125,-2.466797 1.453125,-3.867187 h 3.46875 c -0.392578,1.6962886 -0.960937,3.3017573 -1.710937,4.8164058 -0.75,1.5175781 -1.740235,2.8447265 -2.964844,3.984375 -1.21875,1.1425781 -2.704102,2.04785151 -4.453125,2.71874995 -1.743164,0.66210938 -3.785156,0.99609375 -6.128906,0.99609375 -2.704102,0 -5.021485,-0.49804687 -6.949219,-1.48828125 -1.921875,-0.99023435 -3.498047,-2.33496095 -4.722656,-4.03124995 -1.21875,-1.6933594 -2.106446,-3.6591797 -2.660157,-5.8945313 -0.55664,-2.232422 -0.832031,-4.605469 -0.832031,-7.113281 0,-3.357422 0.413086,-6.210938 1.242188,-8.554688 0.834961,-2.349609 1.986328,-4.268554 3.457031,-5.753906 1.467773,-1.482422 3.193359,-2.557617 5.179687,-3.222656 1.992188,-0.670899 4.160157,-1.007813 6.503907,-1.007813 1.795898,0 3.46875,0.240235 5.015625,0.714844 1.546875,0.46875 2.912109,1.177734 4.101562,2.121094 1.195313,0.946289 2.173828,2.115234 2.941406,3.503906 0.764649,1.382813 1.294922,2.988281 1.59375,4.816406 z m 0,0"
       style="fill:#e5e6ed;fill-opacity:1;fill-rule:nonzero;stroke:none"
       aria-label="kMC"
       transform="matrix(0.71873363,0,0,0.71873363,61.582543,30.828559)"
       clip-path="url(#clipPath2)" />
    <path
       id="path3"
       d="m 9.4926518,-12.563094 c -0.2988282,1.429688 -0.3925782,2.7890628 -0.28125,4.0781253 0.1171875,1.2890625 0.4453125,2.4140625 0.9843752,3.375 0.539062,0.9609375 1.271484,1.7285156 2.203125,2.296875 0.928711,0.571289 2.0625,0.8554687 3.398437,0.8554687 1.5,0 2.874024,-0.2988281 4.125,-0.9023437 1.256836,-0.600586 2.34961,-1.4208985 3.28125,-2.4609375 0.928711,-1.0458985 1.702149,-2.2617188 2.320313,-3.6445313 0.624023,-1.3886715 1.066406,-2.8857425 1.324219,-4.4882815 0.64746,-3.193359 0.342773,-5.648437 -0.914063,-7.359375 -1.250977,-1.710937 -3.114258,-2.566406 -5.589844,-2.566406 -1.368164,0 -2.648437,0.27832 -3.84375,0.832031 -1.189453,0.556641 -2.24707,1.3125 -3.175781,2.273438 -0.931641,0.960937 -1.722656,2.103515 -2.378906,3.421875 -0.650391,1.321289 -1.1337893,2.750976 -1.4531252,4.289062 z M 4.699683,9.9720625 H 1.7582768 L 9.246558,-25.336531 h 2.929688 l -0.925782,4.453125 h 0.09375 c 0.585938,-0.811524 1.283203,-1.541016 2.097657,-2.191406 0.820312,-0.65625 1.666992,-1.195313 2.542968,-1.617188 0.881836,-0.427734 1.772461,-0.755859 2.671875,-0.984375 0.896485,-0.225586 1.751953,-0.339844 2.566407,-0.339844 2.05371,0 3.732421,0.345703 5.039062,1.03125 1.303711,0.679688 2.279297,1.617188 2.929688,2.8125 0.65625,1.189453 1.02246,2.598633 1.101562,4.230469 0.08496,1.625977 -0.06738,3.369141 -0.457031,5.226563 -0.398438,1.757812 -0.990235,3.4541011 -1.769531,5.085937 -0.782227,1.6347656 -1.766602,3.0644531 -2.953125,4.2890625 -1.189454,1.21875 -2.575196,2.1972656 -4.160157,2.9296875 -1.579101,0.7265625 -3.328125,1.08984375 -5.25,1.08984375 -1.798828,0 -3.439453,-0.3984375 -4.921875,-1.1953125 C 9.2963627,-1.3130937 8.262183,-2.4908281 7.6762455,-4.0552812 Z M 31.740699,6.8900313 c 0.351562,0.070312 0.729492,0.1347656 1.136718,0.1992187 0.413086,0.061523 0.832032,0.09375 1.253907,0.09375 0.811523,0 1.535156,-0.2636719 2.167968,-0.7851562 0.638672,-0.515625 1.201172,-1.1425782 1.6875,-1.875 0.492188,-0.7353516 0.94043,-1.5 1.347657,-2.296875 0.413086,-0.796875 0.814453,-1.47363286 1.207031,-2.0273438 l -4.40625,-25.535156 h 3.28125 L 42.932105,-3.5748125 55.646949,-25.336531 H 58.82273 L 44.057105,-0.3404375 c -0.946289,1.59375 -1.810547,3.0263672 -2.589844,4.3007813 -0.782226,1.2714843 -1.564453,2.3554687 -2.34375,3.2460937 -0.782226,0.8964844 -1.599609,1.5820313 -2.449219,2.0507813 -0.84375,0.4746093 -1.77539,0.7148437 -2.789062,0.7148437 -0.524414,0 -1.025391,-0.032227 -1.5,-0.09375 -0.46875,-0.064453 -0.884766,-0.1464844 -1.242188,-0.2460937 z m 0,0"
       style="fill:#f57530;fill-opacity:1;fill-rule:nonzero;stroke:none"
       aria-label="py"
       transform="matrix(0.71873363,0,0,0.71873363,133.80684,30.828559)"
       clip-path="url(#clipPath4)" />
    <path
       id="path5"
       d="m 60.391061,50.343447 v -4.337671 h 0.404288 v 2.248852 l 2.223582,-2.248852 h 0.463243 l -1.709793,1.726638 2.013012,2.611033 h -0.496937 l -1.810869,-2.35834 -0.682238,0.682229 v 1.676111 z m 3.994444,0 v -3.116379 h 0.362182 v 3.116379 z m -0.01631,-3.798628 v -0.539043 h 0.395875 v 0.539043 z m 1.657162,3.798628 h -0.362181 v -3.116379 h 0.362181 v 0.429556 c 0.145263,-0.151578 0.294788,-0.273738 0.446407,-0.370595 0.155857,-0.09474 0.345332,-0.143226 0.564307,-0.143226 0.189475,0 0.3664,0.03363 0.530631,0.10105 0.168488,0.06316 0.307438,0.176843 0.421138,0.345311 0.07151,0.113688 0.113687,0.22743 0.126319,0.345333 0.01631,0.117962 0.02525,0.24216 0.02525,0.370595 v 2.038291 h -0.362163 v -2.038291 c 0,-0.280055 -0.06316,-0.490616 -0.1854,-0.631683 -0.124275,-0.138947 -0.328481,-0.210581 -0.61485,-0.210581 -0.113687,0 -0.2169,0.0163 -0.311656,0.05053 -0.09045,0.03361 -0.174806,0.08006 -0.25267,0.13467 -0.07376,0.05685 -0.134669,0.122238 -0.1854,0.193753 -0.0505,0.07375 -0.09046,0.149541 -0.117963,0.227408 -0.03994,0.10105 -0.0652,0.200069 -0.07579,0.294785 -0.0062,0.09046 -0.0081,0.191715 -0.0081,0.30322 z m 5.253624,-1.777184 c 0,-0.15158 -0.02325,-0.294785 -0.06744,-0.429556 -0.03994,-0.13467 -0.10105,-0.248456 -0.185394,-0.345333 -0.08415,-0.10105 -0.189475,-0.179082 -0.311637,-0.235823 -0.124275,-0.06112 -0.267425,-0.0927 -0.429557,-0.0927 -0.157893,0 -0.299,0.03159 -0.421143,0.0927 -0.124275,0.06316 -0.231607,0.143226 -0.320044,0.244258 -0.08415,0.09678 -0.151581,0.210562 -0.202106,0.345332 -0.0505,0.13467 -0.08415,0.275837 -0.101063,0.421122 z m -2.038268,0.303219 c 0,0.16849 0.021,0.328482 0.06744,0.480082 0.04419,0.147505 0.109613,0.275858 0.19375,0.387444 0.08415,0.113688 0.19375,0.202106 0.328481,0.269543 0.134669,0.06316 0.286369,0.0927 0.454819,0.0927 0.240044,0 0.446406,-0.06112 0.614856,-0.185195 0.168488,-0.122038 0.280057,-0.299003 0.336894,-0.530629 h 0.404294 c -0.04625,0.151579 -0.105338,0.292686 -0.176844,0.421141 -0.07375,0.124275 -0.166244,0.233725 -0.277956,0.328483 -0.107375,0.09046 -0.235844,0.159932 -0.387444,0.210561 -0.1475,0.0548 -0.31795,0.08414 -0.513775,0.08414 -0.248481,0 -0.461137,-0.04218 -0.640119,-0.126316 -0.181118,-0.08414 -0.328481,-0.197827 -0.446406,-0.345331 -0.117962,-0.145264 -0.206362,-0.315851 -0.261106,-0.51378 -0.05687,-0.202106 -0.08415,-0.416925 -0.08415,-0.648551 0,-0.229509 0.03363,-0.442188 0.101062,-0.640118 0.06743,-0.202105 0.160132,-0.379029 0.277932,-0.530629 0.122237,-0.151578 0.271643,-0.269521 0.446406,-0.353746 0.179081,-0.08414 0.381131,-0.126315 0.606437,-0.126315 0.431657,0 0.768575,0.149541 1.010713,0.446384 0.246381,0.292686 0.3664,0.720144 0.362181,1.280254 z m 4.226062,1.48238 c -0.04625,0.01025 -0.105338,0.02526 -0.176844,0.04218 -0.07375,0.02099 -0.155856,0.03361 -0.244237,0.03361 -0.181119,0 -0.317969,-0.04625 -0.412725,-0.134668 -0.09677,-0.08843 -0.143225,-0.252674 -0.143225,-0.488498 v -2.282553 h -0.437975 v -0.294785 h 0.437975 v -0.867546 h 0.362181 v 0.867546 h 0.589587 v 0.294785 h -0.589587 v 2.139365 c 0,0.08006 0.0019,0.147301 0.0081,0.202106 0.0044,0.05684 0.01631,0.105338 0.03363,0.143225 0.021,0.03363 0.05256,0.05889 0.0927,0.07579 0.04419,0.01225 0.105338,0.0163 0.1854,0.0163 0.04419,0 0.0927,-0.002 0.143225,-0.0081 0.0505,-0.0041 0.101062,-0.0163 0.151581,-0.03361 z m 0.629606,-0.0081 v -3.116379 h 0.362156 v 3.116379 z m -0.01631,-3.798629 V 46.00609 h 0.395856 v 0.539043 z m 3.510138,1.659263 c -0.06744,-0.229508 -0.181118,-0.408489 -0.336918,-0.539043 -0.151575,-0.13467 -0.349525,-0.202106 -0.589569,-0.202106 -0.1854,0 -0.345331,0.03994 -0.4801,0.117962 -0.130594,0.07375 -0.235825,0.174807 -0.32005,0.30322 -0.08434,0.124275 -0.149544,0.267424 -0.19375,0.429557 -0.03994,0.157895 -0.05888,0.31795 -0.05888,0.480082 0,0.16421 0.01831,0.324285 0.05888,0.480103 0.03787,0.157895 0.10105,0.299002 0.185194,0.421121 0.08415,0.124275 0.189475,0.223212 0.320068,0.294805 0.134669,0.07375 0.296907,0.1094 0.488519,0.1094 0.269519,0 0.4843,-0.07151 0.648531,-0.218995 0.162169,-0.15158 0.263207,-0.355845 0.303219,-0.614854 h 0.387444 c -0.03363,0.174805 -0.08843,0.334799 -0.160138,0.480103 -0.06744,0.140985 -0.157893,0.261107 -0.269525,0.36216 -0.107375,0.10105 -0.235818,0.181121 -0.387443,0.235845 -0.151575,0.05481 -0.326382,0.08414 -0.522194,0.08414 -0.252694,0 -0.469569,-0.04218 -0.64855,-0.126316 -0.181119,-0.08414 -0.328481,-0.197828 -0.446406,-0.345331 -0.113675,-0.145264 -0.197827,-0.320069 -0.25267,-0.522195 -0.05681,-0.202105 -0.08415,-0.414825 -0.08415,-0.640137 0,-0.218975 0.02956,-0.425338 0.0927,-0.623267 0.06113,-0.202106 0.151576,-0.37903 0.26952,-0.53063 0.12225,-0.151579 0.271643,-0.27164 0.446406,-0.36218 0.179081,-0.08843 0.387444,-0.13467 0.623287,-0.13467 0.357963,0 0.648532,0.08843 0.867525,0.261087 0.223194,0.168489 0.364282,0.435872 0.421144,0.800152 z m 2.853175,2.139366 V 46.00609 h 0.623269 l 1.423437,3.823892 h 0.0081 l 1.398175,-3.823892 h 0.62327 v 4.337672 h -0.412684 v -3.866029 h -0.0081 l -1.423444,3.866004 h -0.387444 l -1.423418,-3.866004 h -0.01631 v 3.866004 z m 6.222245,0.08414 c -0.202106,-0.0061 -0.391663,-0.04218 -0.564325,-0.1094 -0.174806,-0.06744 -0.328481,-0.168488 -0.463238,-0.303218 -0.130593,-0.138949 -0.233743,-0.311635 -0.31165,-0.513782 -0.07375,-0.206363 -0.1094,-0.446405 -0.1094,-0.715926 0,-0.229529 0.02956,-0.442187 0.0927,-0.640116 0.06112,-0.202106 0.151575,-0.374813 0.269519,-0.522215 0.122038,-0.151579 0.273738,-0.269521 0.454819,-0.353746 0.179087,-0.08414 0.389544,-0.126317 0.631706,-0.126317 0.240038,0 0.4506,0.04218 0.6317,0.126317 0.185194,0.08414 0.3369,0.202106 0.454819,0.353746 0.122037,0.147505 0.212662,0.320069 0.269525,0.522215 0.05481,0.197827 0.08414,0.410587 0.08414,0.640116 0,0.248455 -0.03363,0.471669 -0.10105,0.673815 -0.06744,0.202105 -0.16625,0.37691 -0.294787,0.522194 -0.124275,0.141189 -0.275838,0.250575 -0.454819,0.328482 -0.181119,0.07782 -0.376931,0.117963 -0.589587,0.117963 z m 1.061256,-1.642413 c 0,-0.185197 -0.02325,-0.355865 -0.06743,-0.51378 -0.03994,-0.162174 -0.10105,-0.30322 -0.1852,-0.421143 -0.08415,-0.117962 -0.19375,-0.21056 -0.328481,-0.277935 -0.130594,-0.07151 -0.290588,-0.109612 -0.480081,-0.109612 -0.191513,0 -0.353769,0.03994 -0.488519,0.117962 -0.134669,0.07375 -0.244256,0.172564 -0.328481,0.294785 -0.08414,0.117963 -0.147507,0.259009 -0.185194,0.421141 -0.03994,0.157895 -0.05888,0.320069 -0.05888,0.488518 0,0.191715 0.021,0.368496 0.06744,0.530629 0.04419,0.164211 0.111638,0.30322 0.202107,0.421121 0.08841,0.117962 0.197825,0.208462 0.328481,0.269542 0.134875,0.06316 0.288469,0.0927 0.46325,0.0927 0.1854,0 0.345337,-0.03586 0.480087,-0.1094 0.134869,-0.07151 0.244257,-0.170526 0.328482,-0.294805 0.08414,-0.122037 0.145262,-0.263206 0.185193,-0.421121 0.04419,-0.155857 0.06744,-0.320069 0.06744,-0.488517 z m 1.404475,1.55819 h -0.362181 v -3.1164 h 0.362181 v 0.429556 c 0.145262,-0.151579 0.294781,-0.273739 0.446406,-0.370595 0.155856,-0.09474 0.345331,-0.143226 0.564306,-0.143226 0.189469,0 0.366394,0.03363 0.530625,0.10105 0.168494,0.06316 0.307438,0.176841 0.421144,0.345311 0.07151,0.113687 0.113688,0.22743 0.126313,0.345331 0.01631,0.117963 0.02525,0.24216 0.02525,0.370595 v 2.038293 h -0.362165 v -2.038321 c 0,-0.280055 -0.06315,-0.490616 -0.185194,-0.631682 -0.124275,-0.138948 -0.328487,-0.21058 -0.614856,-0.21058 -0.113687,0 -0.216894,0.0163 -0.311656,0.05053 -0.09046,0.03361 -0.1748,0.08006 -0.252669,0.134668 -0.07375,0.05685 -0.134669,0.122238 -0.185194,0.193753 -0.0505,0.07375 -0.09046,0.149541 -0.117962,0.22741 -0.03994,0.10105 -0.06519,0.200067 -0.07579,0.294785 -0.0062,0.09046 -0.0081,0.191715 -0.0081,0.303219 z m 4.091313,0.0081 c -0.04625,0.01025 -0.105337,0.02526 -0.176845,0.04218 -0.07375,0.02097 -0.155856,0.03361 -0.244256,0.03361 -0.181119,0 -0.31795,-0.04625 -0.412706,-0.13467 -0.09678,-0.08843 -0.143225,-0.252672 -0.143225,-0.488496 v -2.28255 h -0.437994 v -0.294785 h 0.437994 v -0.867536 h 0.362181 v 0.867547 h 0.58957 v 0.294785 h -0.58957 v 2.139365 c 0,0.08006 0.0019,0.1473 0.0081,0.202105 0.0044,0.05685 0.01631,0.105338 0.03363,0.143226 0.021,0.03363 0.05256,0.05889 0.0927,0.07579 0.04419,0.01225 0.105338,0.0163 0.1854,0.0163 0.04419,0 0.0927,-0.002 0.143225,-0.0081 0.0505,-0.0041 0.101063,-0.0163 0.151583,-0.03361 z m 2.836324,-1.7856 c 0,-0.151579 -0.0233,-0.294785 -0.0674,-0.429555 -0.0399,-0.13467 -0.10105,-0.248457 -0.18519,-0.345333 -0.0844,-0.10105 -0.18948,-0.179084 -0.31166,-0.235824 -0.12427,-0.06112 -0.26742,-0.0927 -0.42955,-0.0927 -0.1579,0 -0.299,0.03158 -0.42112,0.0927 -0.124279,0.06316 -0.231635,0.143227 -0.320073,0.244259 -0.08415,0.09678 -0.151581,0.21056 -0.202106,0.345331 -0.0505,0.13467 -0.08414,0.275838 -0.10105,0.421122 z m -2.038292,0.30322 c 0,0.168488 0.021,0.328482 0.06744,0.480082 0.04419,0.147504 0.1094,0.275858 0.19375,0.387444 0.08415,0.113687 0.193756,0.202105 0.328492,0.269542 0.13486,0.06316 0.28636,0.0927 0.45481,0.0927 0.24007,0 0.44641,-0.06112 0.61485,-0.185195 0.1685,-0.122037 0.28006,-0.299002 0.33692,-0.53063 h 0.4043 c -0.0463,0.15158 -0.10534,0.292688 -0.17685,0.421143 -0.0738,0.124275 -0.16625,0.233725 -0.27795,0.328482 -0.10737,0.09046 -0.23583,0.159933 -0.38745,0.210562 -0.1473,0.0548 -0.31795,0.08414 -0.51378,0.08414 -0.24845,0 -0.46113,-0.04218 -0.640111,-0.126316 -0.181125,-0.08414 -0.328487,-0.197828 -0.446406,-0.345331 -0.117962,-0.145264 -0.206344,-0.315852 -0.261106,-0.513782 -0.05681,-0.202105 -0.08414,-0.416923 -0.08414,-0.648551 0,-0.229507 0.03363,-0.442187 0.10105,-0.640116 0.06744,-0.202105 0.159932,-0.379029 0.277957,-0.530629 0.122037,-0.151579 0.271618,-0.269521 0.446406,-0.353746 0.17908,-0.08414 0.38113,-0.126316 0.60642,-0.126316 0.43167,0 0.76857,0.149542 1.01073,0.446385 0.24636,0.292686 0.36638,0.720143 0.36216,1.280253 z m 7.932055,-1.600302 c -0.0841,-0.370595 -0.24216,-0.633801 -0.47169,-0.791737 -0.22529,-0.155857 -0.52219,-0.235824 -0.89279,-0.235824 -0.26532,0 -0.49273,0.0548 -0.682233,0.159933 -0.1854,0.10105 -0.34114,0.24216 -0.46325,0.421142 -0.11797,0.174805 -0.20847,0.37691 -0.26952,0.606439 -0.0568,0.231606 -0.0841,0.475865 -0.0841,0.732755 0,0.24216 0.0252,0.480102 0.0758,0.715926 0.0505,0.231628 0.13059,0.437991 0.24426,0.623289 0.11796,0.18112 0.27374,0.326384 0.47167,0.43797 0.195793,0.113687 0.442193,0.168489 0.741193,0.168489 0.1854,0 0.35376,-0.0273 0.50536,-0.08414 0.15158,-0.06112 0.28215,-0.145264 0.39586,-0.252672 0.11796,-0.105338 0.2148,-0.231628 0.29481,-0.37903 0.0778,-0.145264 0.1369,-0.303199 0.17683,-0.471668 h 0.42956 c -0.0505,0.208461 -0.12224,0.404293 -0.21058,0.58959 -0.0904,0.185195 -0.21056,0.349549 -0.36216,0.488516 -0.15158,0.141189 -0.33692,0.252674 -0.55591,0.336918 -0.21478,0.08415 -0.46324,0.126316 -0.74961,0.126316 -0.3327,0 -0.619063,-0.06316 -0.859113,-0.185399 -0.23584,-0.122037 -0.42955,-0.28849 -0.58117,-0.496952 -0.1473,-0.206343 -0.25689,-0.448503 -0.32848,-0.72434 -0.0674,-0.27374 -0.10105,-0.566426 -0.10105,-0.875961 0,-0.414805 0.0505,-0.766453 0.15158,-1.052824 0.10532,-0.290588 0.24847,-0.526411 0.42955,-0.707512 0.17908,-0.185197 0.38955,-0.315852 0.6317,-0.395859 0.246363,-0.08414 0.515883,-0.126315 0.808573,-0.126315 0.219,0 0.42324,0.02954 0.61485,0.08414 0.18948,0.05685 0.35796,0.143227 0.50537,0.261108 0.14526,0.117962 0.26531,0.265305 0.36218,0.43797 0.0947,0.16849 0.15993,0.366377 0.19375,0.589591 z m 3.26376,1.440268 c -0.15158,0.06316 -0.30742,0.105325 -0.46324,0.126315 -0.15789,0.0163 -0.31585,0.03159 -0.47166,0.04218 -0.27584,0.02322 -0.49274,0.08843 -0.64856,0.193752 -0.15157,0.10105 -0.2274,0.258989 -0.2274,0.471669 0,0.09677 0.0163,0.181121 0.0505,0.252673 0.0379,0.06744 0.0884,0.126316 0.15158,0.176842 0.0611,0.04625 0.13467,0.08006 0.21897,0.10105 0.0842,0.0163 0.16849,0.02526 0.2527,0.02526 0.13894,0 0.27793,-0.0163 0.4127,-0.05053 0.13895,-0.03361 0.26321,-0.08639 0.3706,-0.160137 0.10534,-0.07783 0.18947,-0.172563 0.25267,-0.28637 0.0674,-0.117962 0.10105,-0.254791 0.10105,-0.412707 z m -0.60642,-0.185196 c 0.0674,-0.0041 0.14526,-0.0163 0.23583,-0.03361 0.0947,-0.0163 0.17256,-0.0379 0.23584,-0.06744 0.0611,-0.0273 0.0968,-0.07579 0.1094,-0.143227 0.0163,-0.06744 0.0252,-0.128353 0.0252,-0.185398 0,-0.185197 -0.0589,-0.336898 -0.17684,-0.45482 -0.11797,-0.117963 -0.31795,-0.176843 -0.59801,-0.176843 -0.13059,0 -0.24847,0.01225 -0.35374,0.03363 -0.10105,0.02323 -0.19172,0.06316 -0.26955,0.117963 -0.0801,0.05053 -0.14322,0.124275 -0.19375,0.218975 -0.0463,0.09046 -0.0758,0.202105 -0.0927,0.336917 h -0.37059 c 0.0102,-0.185196 0.0526,-0.341115 0.12631,-0.471669 0.0715,-0.128557 0.16421,-0.235843 0.27796,-0.320068 0.11796,-0.08414 0.24847,-0.143227 0.39585,-0.176843 0.15159,-0.0379 0.31166,-0.05889 0.48011,-0.05889 0.15586,0 0.30532,0.0163 0.44641,0.05053 0.13894,0.03361 0.26108,0.08843 0.36215,0.159932 0.10105,0.07375 0.17909,0.174805 0.23585,0.30322 0.0611,0.124275 0.0927,0.275838 0.0927,0.454819 v 1.692961 c 0,0.140985 0.0252,0.231606 0.0758,0.269521 0.0505,0.03994 0.15157,0.03159 0.30322,-0.02526 v 0.28637 c -0.0296,0.0061 -0.0715,0.0163 -0.12632,0.03361 -0.0568,0.0163 -0.10962,0.02526 -0.16014,0.02526 -0.0568,0 -0.1094,-0.0061 -0.15993,-0.0163 -0.0631,-0.01225 -0.11368,-0.03159 -0.15158,-0.05889 -0.0336,-0.03361 -0.0632,-0.06947 -0.0841,-0.109612 -0.0233,-0.04421 -0.0379,-0.08843 -0.0422,-0.13467 -0.006,-0.05053 -0.008,-0.103088 -0.008,-0.159933 -0.15789,0.16849 -0.3348,0.299003 -0.53063,0.387444 -0.19783,0.08415 -0.40849,0.126316 -0.6317,0.126316 -0.14098,0 -0.27584,-0.02099 -0.40427,-0.05889 -0.12427,-0.03363 -0.23375,-0.08639 -0.32849,-0.160136 -0.0968,-0.07782 -0.17256,-0.170527 -0.22742,-0.277937 -0.0568,-0.11165 -0.0841,-0.246356 -0.0841,-0.404292 0,-0.526411 0.36218,-0.838045 1.08652,-0.934921 z m 2.29518,1.819297 h -0.36218 v -3.116375 h 0.36218 v 0.581156 h 0.008 c 0.10105,-0.246357 0.2295,-0.416925 0.38744,-0.51378 0.15586,-0.10105 0.36638,-0.15158 0.6317,-0.15158 v 0.387444 c -0.20846,-0.0041 -0.37903,0.02954 -0.51378,0.10105 -0.13059,0.06744 -0.23374,0.160136 -0.31165,0.277956 -0.0801,0.113688 -0.13263,0.250574 -0.15993,0.412707 -0.0296,0.157895 -0.0422,0.320068 -0.0422,0.488517 z m 1.67822,0 v -4.337672 h 0.36215 v 4.337672 z m 2.52468,0.08414 c -0.2021,-0.0061 -0.39166,-0.04218 -0.56432,-0.1094 -0.17481,-0.06744 -0.32849,-0.168489 -0.46324,-0.30322 -0.13059,-0.138948 -0.23374,-0.311634 -0.31165,-0.51378 -0.0738,-0.206364 -0.1094,-0.446405 -0.1094,-0.715927 0,-0.229528 0.0296,-0.442187 0.0927,-0.640116 0.0611,-0.202106 0.15158,-0.374812 0.26952,-0.522215 0.12204,-0.151579 0.27374,-0.269521 0.45482,-0.353746 0.17909,-0.08414 0.38954,-0.126316 0.63171,-0.126316 0.24003,0 0.4506,0.04218 0.6317,0.126316 0.1854,0.08414 0.33689,0.202106 0.45481,0.353746 0.12204,0.147505 0.21269,0.320069 0.26952,0.522215 0.0548,0.197828 0.0841,0.410588 0.0841,0.640116 0,0.248455 -0.0336,0.471668 -0.10105,0.673815 -0.0674,0.202105 -0.16625,0.37691 -0.29478,0.522194 -0.12428,0.141189 -0.27584,0.250575 -0.45482,0.328483 -0.18112,0.07782 -0.37693,0.117962 -0.58959,0.117962 z m 1.06126,-1.642414 c 0,-0.185196 -0.0233,-0.355865 -0.0674,-0.51378 -0.0399,-0.162174 -0.10105,-0.30322 -0.18539,-0.421143 -0.0841,-0.117962 -0.19376,-0.21056 -0.32849,-0.277935 -0.13059,-0.07151 -0.29056,-0.109612 -0.48008,-0.109612 -0.19151,0 -0.35374,0.03994 -0.48852,0.117962 -0.13487,0.07375 -0.24426,0.172564 -0.32848,0.294785 -0.0841,0.117963 -0.1475,0.259009 -0.1854,0.421142 -0.0399,0.157895 -0.0589,0.320068 -0.0589,0.488517 0,0.191715 0.021,0.368496 0.0674,0.530629 0.0442,0.164211 0.11165,0.30322 0.20211,0.421121 0.0884,0.117963 0.19783,0.208463 0.32848,0.269543 0.13467,0.06316 0.28849,0.0927 0.46325,0.0927 0.1852,0 0.34534,-0.03585 0.48009,-0.1094 0.13466,-0.07151 0.24426,-0.170527 0.32848,-0.294805 0.0841,-0.122038 0.14527,-0.263207 0.1854,-0.421122 0.0442,-0.155858 0.0674,-0.320068 0.0674,-0.488517 z m 2.94581,0.261107 c 0.0163,0.197828 0.0589,0.36216 0.12632,0.496932 0.0715,0.134668 0.16217,0.244258 0.26954,0.328482 0.11165,0.08414 0.24004,0.147505 0.38744,0.185195 0.14527,0.03363 0.29901,0.05053 0.46324,0.05053 0.18948,0 0.35586,-0.02099 0.49693,-0.06744 0.13895,-0.05053 0.25479,-0.113688 0.34533,-0.193753 0.0884,-0.08414 0.15382,-0.179084 0.19375,-0.286371 0.0442,-0.11165 0.0674,-0.227409 0.0674,-0.345331 0,-0.168489 -0.0399,-0.305318 -0.11796,-0.412708 -0.0738,-0.105337 -0.17277,-0.189474 -0.29479,-0.252692 -0.12427,-0.06744 -0.26532,-0.12 -0.42114,-0.159933 -0.15789,-0.04421 -0.32005,-0.08414 -0.48852,-0.117962 -0.16848,-0.0379 -0.33268,-0.08414 -0.48849,-0.13467 -0.1579,-0.0548 -0.29901,-0.126315 -0.42114,-0.21056 -0.12428,-0.08843 -0.22532,-0.202107 -0.30322,-0.336918 -0.0738,-0.138947 -0.1094,-0.315851 -0.1094,-0.530629 0,-0.15158 0.0296,-0.296883 0.0927,-0.43797 0.0611,-0.138948 0.15361,-0.263206 0.27795,-0.370596 0.12204,-0.11165 0.27374,-0.197827 0.45482,-0.261107 0.1854,-0.06113 0.39798,-0.0927 0.64012,-0.0927 0.24638,0 0.45903,0.03363 0.64013,0.10105 0.1854,0.06744 0.3369,0.159932 0.45483,0.277936 0.12204,0.117963 0.21267,0.25689 0.26952,0.412707 0.0611,0.157895 0.0927,0.324285 0.0927,0.496952 h -0.38745 c 0,-0.162174 -0.0316,-0.30322 -0.0927,-0.421142 -0.0569,-0.122037 -0.13467,-0.221093 -0.23582,-0.294785 -0.10105,-0.07782 -0.2169,-0.134669 -0.34533,-0.168489 -0.12428,-0.0379 -0.25689,-0.05889 -0.39588,-0.05889 -0.20844,0 -0.38532,0.03159 -0.53061,0.0927 -0.14119,0.05684 -0.25269,0.132631 -0.33692,0.22741 -0.0841,0.09046 -0.14322,0.191715 -0.17684,0.303219 -0.0296,0.113687 -0.0316,0.225311 -0.008,0.336917 0.021,0.140985 0.0758,0.252673 0.15993,0.336898 0.0884,0.08414 0.19782,0.155857 0.32848,0.21056 0.12836,0.05053 0.26953,0.0927 0.42113,0.126316 0.15585,0.03361 0.31375,0.07151 0.47166,0.109612 0.16217,0.03994 0.32007,0.08414 0.47169,0.134669 0.15158,0.05053 0.28215,0.122038 0.39586,0.210581 0.11796,0.09046 0.21056,0.206344 0.27794,0.345332 0.0715,0.13467 0.1094,0.307416 0.1094,0.51378 0,0.404272 -0.13895,0.720123 -0.41272,0.943336 -0.27585,0.218975 -0.6654,0.328484 -1.17076,0.328484 -0.22529,0 -0.43376,-0.03157 -0.62327,-0.0927 -0.19151,-0.0548 -0.35796,-0.143227 -0.49693,-0.261108 -0.14099,-0.117962 -0.25057,-0.263206 -0.32848,-0.43797 -0.0801,-0.179084 -0.11796,-0.387444 -0.11796,-0.623267 z m 3.51226,1.297082 v -3.116379 h 0.36218 v 3.116379 z m -0.0163,-3.798628 V 46.00571 h 0.39585 v 0.539043 z m 1.61505,3.798628 h -0.36218 v -3.116379 h 0.36218 v 0.463234 h 0.008 c 0.0947,-0.179084 0.22741,-0.313733 0.39586,-0.404273 0.17256,-0.09474 0.36219,-0.143226 0.56432,-0.143226 0.14528,0 0.26953,0.0163 0.3706,0.05053 0.101,0.02955 0.1852,0.07151 0.25268,0.126316 0.0715,0.05053 0.13059,0.113688 0.17684,0.185196 0.0441,0.07375 0.0841,0.151579 0.118,0.235844 0.10537,-0.202105 0.24636,-0.349549 0.42112,-0.446405 0.17276,-0.10105 0.37271,-0.151579 0.59803,-0.151579 0.21266,0 0.38111,0.0379 0.50535,0.1094 0.12855,0.06744 0.2274,0.157895 0.2948,0.269522 0.0675,0.113687 0.11162,0.244258 0.13467,0.395857 0.021,0.147505 0.0336,0.299023 0.0336,0.45484 v 1.970896 h -0.36205 v -2.156193 c 0,-0.223213 -0.0485,-0.400075 -0.14323,-0.530629 -0.0905,-0.128558 -0.2653,-0.193753 -0.52221,-0.193753 -0.13466,0 -0.2653,0.03158 -0.38742,0.0927 -0.118,0.05685 -0.22532,0.143227 -0.32007,0.261108 -0.0399,0.05685 -0.0738,0.122037 -0.101,0.193752 -0.0233,0.06744 -0.0421,0.141189 -0.0589,0.218997 -0.0164,0.07375 -0.0296,0.149541 -0.0336,0.227408 -0.006,0.07375 -0.009,0.143227 -0.009,0.210562 v 1.676111 h -0.36216 v -2.156204 c 0,-0.223212 -0.0485,-0.400075 -0.14322,-0.530629 -0.097,-0.128557 -0.26954,-0.193752 -0.52222,-0.193752 -0.13467,0 -0.2653,0.03157 -0.38745,0.0927 -0.12427,0.05684 -0.23162,0.143226 -0.32006,0.261107 -0.0399,0.05684 -0.0738,0.122038 -0.10105,0.193753 -0.0233,0.06744 -0.0422,0.141189 -0.0589,0.218995 -0.0163,0.07375 -0.0296,0.149542 -0.0336,0.22741 -0.006,0.07375 -0.008,0.143226 -0.008,0.210561 z m 6.81391,-3.116379 h 0.36218 v 3.116379 h -0.36218 v -0.429555 c -0.0463,0.05685 -0.099,0.115725 -0.15993,0.176842 -0.0631,0.05685 -0.13263,0.1094 -0.21058,0.159933 -0.0738,0.05053 -0.16421,0.0927 -0.26952,0.126315 -0.10738,0.03363 -0.22741,0.05053 -0.36218,0.05053 -0.20845,0 -0.38323,-0.02954 -0.5222,-0.08414 -0.14118,-0.06113 -0.25688,-0.143226 -0.34533,-0.244259 -0.0841,-0.105337 -0.1475,-0.227408 -0.18519,-0.36218 -0.0399,-0.138947 -0.0589,-0.294785 -0.0589,-0.463233 v -2.046707 h 0.36218 v 2.046707 c 0,0.269522 0.0611,0.475865 0.1852,0.614853 0.12856,0.140985 0.3327,0.21056 0.61485,0.21056 0.15159,0 0.28637,-0.0273 0.4043,-0.08414 0.118,-0.0548 0.21477,-0.13691 0.29477,-0.244259 0.0841,-0.105337 0.14528,-0.229507 0.1854,-0.370594 0.0441,-0.145263 0.0675,-0.305318 0.0675,-0.480103 z m 1.295,3.116379 V 46.00571 h 0.36217 v 4.337671 z m 3.32484,-1.633999 c -0.15157,0.06316 -0.30744,0.105337 -0.46325,0.126316 -0.1579,0.0163 -0.31585,0.03159 -0.47166,0.04218 -0.27584,0.02322 -0.49274,0.08842 -0.64855,0.193753 -0.15159,0.10105 -0.22741,0.258988 -0.22741,0.471667 0,0.09678 0.0163,0.181121 0.0505,0.252673 0.0379,0.06744 0.0884,0.126316 0.15157,0.176842 0.0611,0.04625 0.13468,0.08006 0.219,0.10105 0.0841,0.0163 0.16849,0.02526 0.25268,0.02526 0.13893,0 0.27795,-0.0163 0.4127,-0.05053 0.13895,-0.03361 0.26321,-0.08639 0.3706,-0.160137 0.10537,-0.07782 0.18947,-0.172565 0.25268,-0.286371 0.0675,-0.117962 0.101,-0.254791 0.101,-0.412706 z m -0.60644,-0.185196 c 0.0675,-0.0041 0.14527,-0.0163 0.23585,-0.03363 0.0948,-0.0163 0.17257,-0.03789 0.23583,-0.06744 0.0611,-0.0273 0.0968,-0.07579 0.10937,-0.143226 0.0164,-0.06744 0.0252,-0.128353 0.0252,-0.185399 0,-0.185196 -0.0589,-0.336897 -0.17683,-0.454819 -0.118,-0.117962 -0.31795,-0.176842 -0.59802,-0.176842 -0.13058,0 -0.24847,0.01225 -0.35373,0.03361 -0.101,0.02322 -0.19172,0.06316 -0.26953,0.117963 -0.08,0.05053 -0.14322,0.124275 -0.19375,0.218975 -0.0463,0.09046 -0.0757,0.202105 -0.0927,0.336917 h -0.37061 c 0.01,-0.185196 0.0526,-0.341115 0.12631,-0.471668 0.0715,-0.128557 0.16421,-0.235844 0.27794,-0.320068 0.118,-0.08415 0.24847,-0.143226 0.39587,-0.176842 0.15158,-0.0379 0.31164,-0.05889 0.48009,-0.05889 0.15585,0 0.30531,0.0163 0.4464,0.05053 0.13895,0.03361 0.26111,0.08843 0.36216,0.159933 0.101,0.07375 0.17888,0.174805 0.23584,0.303218 0.0611,0.124275 0.0928,0.275838 0.0928,0.454819 v 1.692961 c 0,0.140985 0.0252,0.231607 0.0757,0.269522 0.0505,0.03994 0.15158,0.03159 0.30321,-0.02526 v 0.286371 c -0.0295,0.0061 -0.0715,0.0163 -0.12631,0.03361 -0.0567,0.0163 -0.10962,0.02526 -0.16014,0.02526 -0.0569,0 -0.10937,-0.0061 -0.16013,-0.0163 -0.0631,-0.01225 -0.11363,-0.03159 -0.15158,-0.05889 -0.0336,-0.03361 -0.0631,-0.06947 -0.0841,-0.109613 -0.0232,-0.04421 -0.0379,-0.08843 -0.0421,-0.134668 -0.006,-0.05053 -0.009,-0.103088 -0.009,-0.159933 -0.1579,0.168489 -0.3348,0.299001 -0.53062,0.387444 -0.19783,0.08414 -0.40849,0.126316 -0.63169,0.126316 -0.14099,0 -0.27585,-0.02099 -0.40429,-0.05889 -0.12425,-0.03363 -0.23372,-0.08639 -0.32849,-0.160137 -0.0968,-0.07783 -0.17256,-0.170526 -0.22741,-0.277936 -0.0569,-0.11165 -0.0841,-0.246356 -0.0841,-0.404292 0,-0.526412 0.36216,-0.838045 1.08652,-0.934922 z m 3.01322,1.827711 c -0.0465,0.01012 -0.10538,0.02526 -0.17685,0.04217 -0.0738,0.02099 -0.15585,0.03363 -0.24424,0.03363 -0.18111,0 -0.31796,-0.04625 -0.41273,-0.134669 -0.0968,-0.08843 -0.14322,-0.252674 -0.14322,-0.488497 v -2.28255 h -0.43796 v -0.294785 h 0.43796 V 46.35965 h 0.36219 v 0.867546 h 0.58958 v 0.294785 h -0.58958 v 2.139365 c 0,0.08008 0.002,0.147301 0.009,0.202106 0.005,0.05685 0.0164,0.105337 0.0336,0.143226 0.021,0.03362 0.0526,0.05889 0.0927,0.07579 0.0441,0.01225 0.10538,0.0163 0.1854,0.0163 0.0441,0 0.0927,-0.002 0.14323,-0.0081 0.0505,-0.0041 0.101,-0.0163 0.15157,-0.03363 z m 0.6296,-0.0081 v -3.116379 h 0.36216 v 3.116379 z m -0.0162,-3.798628 v -0.539043 h 0.39586 v 0.539043 z m 2.54153,3.882853 c -0.2021,-0.0061 -0.39165,-0.04218 -0.5643,-0.1094 -0.17481,-0.06744 -0.32848,-0.168489 -0.46325,-0.30322 -0.1306,-0.138948 -0.23372,-0.311634 -0.31166,-0.51378 -0.0737,-0.206364 -0.10937,-0.446405 -0.10937,-0.715926 0,-0.229529 0.0295,-0.442188 0.0927,-0.640117 0.0611,-0.202106 0.15157,-0.374812 0.26951,-0.522215 0.122,-0.15158 0.27375,-0.269522 0.45482,-0.353746 0.17909,-0.08414 0.38954,-0.126316 0.6317,-0.126316 0.24004,0 0.45063,0.04218 0.6317,0.126316 0.1852,0.08414 0.3369,0.202106 0.45483,0.353746 0.122,0.147504 0.21267,0.320069 0.26952,0.522215 0.0549,0.197827 0.0841,0.410588 0.0841,0.640117 0,0.248455 -0.0336,0.471667 -0.101,0.673813 -0.0675,0.202107 -0.16625,0.376912 -0.29481,0.522195 -0.12425,0.141189 -0.27584,0.250574 -0.45482,0.328483 -0.18112,0.07782 -0.37691,0.117962 -0.58958,0.117962 z m 1.06127,-1.642414 c 0,-0.185196 -0.0233,-0.355865 -0.0675,-0.51378 -0.0399,-0.162174 -0.101,-0.30322 -0.1852,-0.421142 -0.0841,-0.117963 -0.19375,-0.21056 -0.32848,-0.277937 -0.1306,-0.07151 -0.29057,-0.109612 -0.48009,-0.109612 -0.19151,0 -0.35373,0.03993 -0.48851,0.117962 -0.13467,0.07375 -0.24426,0.172564 -0.32849,0.294785 -0.0841,0.117963 -0.1475,0.259009 -0.1854,0.421142 -0.0399,0.157895 -0.0589,0.320068 -0.0589,0.488517 0,0.191715 0.021,0.368496 0.0673,0.530629 0.0441,0.164211 0.11162,0.30322 0.20211,0.421121 0.0884,0.117963 0.19783,0.208463 0.32848,0.269543 0.13467,0.06316 0.28848,0.0927 0.46325,0.0927 0.1854,0 0.34533,-0.03586 0.48008,-0.109413 0.13468,-0.07151 0.24428,-0.170527 0.32849,-0.294805 0.0841,-0.122037 0.14526,-0.263206 0.1854,-0.421121 0.0441,-0.155859 0.0675,-0.320069 0.0675,-0.488518 z m 1.40447,1.558189 h -0.36219 v -3.116379 h 0.36219 v 0.429556 c 0.14526,-0.15158 0.29479,-0.273738 0.4464,-0.370595 0.15586,-0.09474 0.34534,-0.143226 0.56433,-0.143226 0.18947,0 0.36637,0.03363 0.53063,0.10105 0.16849,0.06316 0.30742,0.176843 0.42112,0.345311 0.0715,0.113688 0.11362,0.22743 0.12632,0.345333 0.0162,0.117962 0.0252,0.24216 0.0252,0.370595 v 2.038291 h -0.36216 v -2.038291 c 0,-0.280055 -0.0631,-0.490616 -0.1854,-0.631683 -0.12425,-0.138947 -0.3285,-0.210581 -0.61485,-0.210581 -0.11363,0 -0.2169,0.0163 -0.31166,0.05053 -0.0905,0.03363 -0.1748,0.08008 -0.25268,0.13467 -0.0737,0.05684 -0.13466,0.122238 -0.18519,0.193753 -0.0505,0.07375 -0.0905,0.149541 -0.118,0.227408 -0.0399,0.10105 -0.0652,0.200069 -0.0757,0.294785 -0.006,0.09046 -0.007,0.191715 -0.007,0.30322 z m 3.20694,-0.977034 c 0.0548,0.269521 0.15586,0.461155 0.30321,0.572741 0.14528,0.107375 0.35375,0.160137 0.62328,0.160137 0.13487,0 0.24847,-0.01225 0.34532,-0.04218 0.0948,-0.03363 0.17278,-0.07579 0.23583,-0.126315 0.0611,-0.0548 0.10937,-0.117963 0.14322,-0.185197 0.0336,-0.07151 0.0505,-0.145263 0.0505,-0.218995 0,-0.151578 -0.0505,-0.263206 -0.15157,-0.336897 -0.0967,-0.07782 -0.219,-0.13691 -0.3706,-0.176843 -0.1475,-0.04421 -0.30744,-0.08006 -0.4801,-0.1094 -0.17482,-0.03363 -0.3348,-0.07782 -0.48009,-0.13467 -0.1475,-0.06111 -0.26951,-0.147503 -0.37059,-0.261107 -0.101,-0.11165 -0.15159,-0.27162 -0.15159,-0.480083 0,-0.25689 0.0948,-0.46747 0.28638,-0.631701 0.18947,-0.16849 0.46324,-0.252674 0.81697,-0.252674 0.33693,0 0.60854,0.07579 0.817,0.22741 0.21269,0.147302 0.34112,0.395859 0.38745,0.749604 h -0.3706 c -0.0336,-0.240041 -0.12631,-0.408489 -0.27795,-0.505345 -0.1473,-0.10105 -0.3348,-0.15158 -0.56431,-0.15158 -0.23162,0 -0.40849,0.05053 -0.53062,0.15158 -0.118,0.09678 -0.17685,0.22529 -0.17685,0.387444 0,0.140985 0.0464,0.248455 0.14323,0.320047 0.101,0.07375 0.22322,0.13467 0.37059,0.185197 0.15158,0.04625 0.31375,0.08843 0.48853,0.126316 0.17276,0.03363 0.3327,0.08414 0.4801,0.151579 0.15157,0.06316 0.27373,0.149541 0.37058,0.261107 0.101,0.113688 0.15159,0.269521 0.15159,0.471668 0,0.15158 -0.0336,0.284252 -0.101,0.395858 -0.0631,0.113688 -0.14954,0.208463 -0.26109,0.28637 -0.11362,0.07375 -0.24847,0.130595 -0.40428,0.16849 -0.15158,0.0379 -0.32007,0.05889 -0.50537,0.05889 -0.1854,0 -0.35165,-0.02954 -0.49693,-0.08414 -0.14119,-0.05053 -0.2611,-0.122037 -0.36218,-0.218996 -0.101,-0.10105 -0.18112,-0.212659 -0.23582,-0.336896 -0.0569,-0.128558 -0.0884,-0.269523 -0.0927,-0.421141 z m 0,0"
       style="fill:#e5e6ed;fill-opacity:1;fill-rule:nonzero;stroke:none;stroke-width:0.718731"
       aria-label="Kinetic Monte Carlo Simulations" />
    <path
       id="path6"
       d="m 150.00605,49.863364 0.817,-2.636296 h 0.37059 l -1.01913,3.116379 h -0.37902 l -0.68224,-2.619448 h -0.0163 l -0.69066,2.619448 h -0.42955 l -0.95176,-3.116379 h 0.36218 l 0.80015,2.66156 0.72434,-2.66156 h 0.4043 z m 1.76455,0.480083 v -3.116379 h 0.36218 v 3.116379 z m -0.0162,-3.798628 v -0.539043 h 0.39588 v 0.539043 z m 2.39835,3.807043 c -0.0462,0.01025 -0.10537,0.02526 -0.17684,0.04218 -0.0737,0.02099 -0.15586,0.03361 -0.24426,0.03361 -0.18111,0 -0.31796,-0.04625 -0.4127,-0.134668 -0.097,-0.08843 -0.14322,-0.252674 -0.14322,-0.488498 v -2.282553 h -0.438 v -0.294785 h 0.438 v -0.867546 h 0.36215 v 0.867546 h 0.5896 v 0.294785 h -0.5896 v 2.139365 c 0,0.08006 0.002,0.147301 0.009,0.202106 0.005,0.05684 0.0164,0.105338 0.0336,0.143225 0.021,0.03363 0.0526,0.05889 0.0927,0.07579 0.0441,0.01225 0.10538,0.0163 0.1854,0.0163 0.0441,0 0.0928,-0.002 0.14323,-0.0081 0.0505,-0.0041 0.101,-0.0163 0.15157,-0.03361 z m 0.57275,-0.0081 V 46.00609 h 0.36218 v 1.650848 c 0.14526,-0.151579 0.29478,-0.273739 0.4464,-0.370595 0.15586,-0.09474 0.34533,-0.143225 0.56431,-0.143225 0.18947,0 0.3664,0.03361 0.53062,0.10105 0.16849,0.06316 0.30744,0.176843 0.42115,0.345311 0.0715,0.113688 0.11363,0.22743 0.12632,0.345332 0.0163,0.117962 0.0252,0.24216 0.0252,0.370595 v 2.038292 h -0.36217 v -2.038292 c 0,-0.280055 -0.0631,-0.490615 -0.1854,-0.631682 -0.12425,-0.138948 -0.32847,-0.210581 -0.61485,-0.210581 -0.11362,0 -0.2169,0.0163 -0.31165,0.05053 -0.0905,0.03361 -0.17481,0.08006 -0.25267,0.134669 -0.0737,0.05685 -0.13468,0.122237 -0.1852,0.193752 -0.0505,0.07375 -0.0905,0.149543 -0.118,0.22741 -0.04,0.10105 -0.0653,0.200068 -0.0758,0.294785 -0.006,0.09046 -0.009,0.191715 -0.009,0.303219 v 1.676113 z m 0,0"
       style="fill:#e5e6ed;fill-opacity:1;fill-rule:nonzero;stroke:none;stroke-width:0.718731"
       aria-label=" with " />
    <path
       id="path7"
       d="m 159.79108,50.343447 0.91807,-4.337671 h 1.58346 c 0.28005,0 0.50537,0.03363 0.67382,0.10105 0.16848,0.06316 0.29477,0.149541 0.379,0.261107 0.0841,0.113688 0.1306,0.24214 0.14322,0.387444 0.01,0.147301 -0.004,0.301101 -0.0421,0.463234 -0.0505,0.24216 -0.14099,0.442187 -0.26953,0.598025 -0.13059,0.157895 -0.28426,0.282153 -0.46325,0.370595 -0.1748,0.09046 -0.36637,0.155857 -0.57274,0.193752 -0.20211,0.03363 -0.40427,0.05053 -0.60642,0.05053 h -0.92649 l -0.41272,1.911935 z m 1.82771,-2.265701 c 0.18947,0 0.36429,-0.01025 0.5222,-0.03361 0.15586,-0.02097 0.2948,-0.06744 0.41272,-0.13467 0.122,-0.06744 0.22319,-0.155857 0.3032,-0.269521 0.0844,-0.117963 0.1475,-0.269521 0.19375,-0.454819 0.0547,-0.269522 0.007,-0.473787 -0.14322,-0.614854 -0.1475,-0.138947 -0.4127,-0.210581 -0.80015,-0.210581 h -1.06126 l -0.36218,1.718224 z m 1.60874,3.1164 c 0.0443,0.0041 0.0928,0.01025 0.14322,0.0163 0.0505,0.01025 0.101,0.0163 0.15159,0.0163 0.101,0 0.18947,-0.03363 0.26951,-0.10105 0.0779,-0.06316 0.14526,-0.138948 0.20211,-0.227409 0.0611,-0.09046 0.118,-0.185196 0.16849,-0.286371 0.0505,-0.09678 0.101,-0.176843 0.15158,-0.244259 l -0.53907,-3.141643 h 0.39589 l 0.43796,2.678409 1.56663,-2.678409 h 0.38742 l -1.81927,3.074268 c -0.11363,0.195789 -0.219,0.372692 -0.32008,0.530629 -0.0968,0.155858 -0.19171,0.28847 -0.28636,0.395858 -0.0968,0.11165 -0.19804,0.19579 -0.30322,0.252693 -0.101,0.06112 -0.21478,0.0927 -0.3369,0.0927 -0.0675,0 -0.13263,-0.0061 -0.19375,-0.0163 -0.0569,-0.0061 -0.10538,-0.01426 -0.14323,-0.02526 z m 4.31871,-0.842284 c -0.0462,0.01025 -0.10738,0.02526 -0.1852,0.04218 -0.0801,0.02099 -0.16421,0.03361 -0.25268,0.03361 -0.18112,0 -0.30953,-0.04625 -0.38743,-0.134668 -0.0737,-0.08843 -0.0841,-0.252674 -0.0336,-0.488498 l 0.4801,-2.28255 h -0.43797 l 0.0675,-0.294785 h 0.43797 l 0.1852,-0.867546 h 0.36218 l -0.1854,0.867546 h 0.58115 l -0.0589,0.294785 h -0.58956 l -0.44641,2.139365 c -0.0163,0.08006 -0.0315,0.147301 -0.0421,0.202106 -0.006,0.05684 -0.005,0.105338 0.007,0.143225 0.0164,0.03363 0.0421,0.05889 0.0757,0.07579 0.0379,0.01225 0.0968,0.0163 0.17685,0.0163 0.0505,0 0.0968,-0.002 0.14323,-0.0081 0.0505,-0.0041 0.10312,-0.0163 0.16013,-0.03361 z m 0.57064,-0.0081 0.92648,-4.337672 h 0.36218 l -0.35374,1.650848 c 0.17908,-0.151579 0.35584,-0.273739 0.5306,-0.370595 0.17258,-0.09474 0.37063,-0.143225 0.5896,-0.143225 0.18948,0 0.36218,0.03361 0.51378,0.10105 0.15157,0.06316 0.26321,0.176843 0.33691,0.345311 0.0505,0.113688 0.0695,0.22743 0.0589,0.345332 -0.006,0.117962 -0.0233,0.24216 -0.0505,0.370595 l -0.43796,2.038292 h -0.36219 l 0.43799,-2.038292 c 0.0611,-0.280055 0.0441,-0.490615 -0.0505,-0.631682 -0.0967,-0.138948 -0.28636,-0.210581 -0.57274,-0.210581 -0.11362,0 -0.219,0.0163 -0.32005,0.05053 -0.101,0.03361 -0.19802,0.08006 -0.28637,0.134669 -0.0844,0.05685 -0.16013,0.122237 -0.22743,0.193752 -0.0674,0.07375 -0.12425,0.149543 -0.16848,0.22741 -0.0569,0.10105 -0.099,0.200068 -0.12632,0.294785 -0.0296,0.09046 -0.0547,0.191715 -0.0757,0.303219 l -0.36215,1.676113 z m 4.57981,0.08414 c -0.20211,-0.0061 -0.38533,-0.04218 -0.54746,-0.1094 -0.15789,-0.06744 -0.28637,-0.168488 -0.38744,-0.303218 -0.101,-0.138949 -0.16849,-0.311635 -0.20211,-0.513782 -0.0336,-0.206363 -0.0232,-0.446405 0.0336,-0.715926 0.0505,-0.229529 0.12631,-0.442187 0.22741,-0.640116 0.10538,-0.202106 0.23584,-0.374813 0.38744,-0.522215 0.15159,-0.151579 0.32429,-0.269521 0.52223,-0.353746 0.2021,-0.08414 0.42323,-0.126317 0.66537,-0.126317 0.24006,0 0.44219,0.04218 0.60644,0.126317 0.16217,0.08414 0.28847,0.202106 0.37901,0.353746 0.0884,0.147505 0.13895,0.320069 0.15158,0.522215 0.0163,0.197827 0.001,0.410587 -0.0421,0.640116 -0.0569,0.248455 -0.14099,0.471669 -0.25267,0.673815 -0.11363,0.202105 -0.24848,0.37691 -0.40429,0.522194 -0.15158,0.141189 -0.32639,0.250575 -0.52221,0.328482 -0.19783,0.07782 -0.40218,0.117963 -0.61485,0.117963 z m 1.40659,-1.642413 c 0.0336,-0.185197 0.0463,-0.355865 0.0421,-0.51378 0,-0.162174 -0.0315,-0.30322 -0.0927,-0.421143 -0.0568,-0.117962 -0.14322,-0.21056 -0.26109,-0.277935 -0.118,-0.07151 -0.27373,-0.109612 -0.46325,-0.109612 -0.19171,0 -0.36217,0.03994 -0.51377,0.117962 -0.15159,0.07375 -0.28428,0.172564 -0.39586,0.294785 -0.11363,0.117963 -0.20637,0.259009 -0.27795,0.421141 -0.0674,0.157895 -0.122,0.320069 -0.16014,0.488518 -0.0399,0.191715 -0.0547,0.368496 -0.0421,0.530629 0.01,0.164211 0.0462,0.30322 0.10963,0.421121 0.0674,0.117962 0.15992,0.208462 0.27794,0.269542 0.118,0.06316 0.2632,0.0927 0.43798,0.0927 0.18948,0 0.35797,-0.03586 0.50534,-0.1094 0.15159,-0.07151 0.28218,-0.170526 0.39589,-0.294805 0.11162,-0.122037 0.2021,-0.263206 0.26951,-0.421121 0.0715,-0.155857 0.12836,-0.320069 0.1685,-0.488517 z m 1.07598,1.55819 h -0.36216 l 0.66539,-3.1164 h 0.36217 l -0.0927,0.429556 c 0.17909,-0.151579 0.35586,-0.273739 0.53063,-0.370595 0.17257,-0.09474 0.3706,-0.143226 0.5896,-0.143226 0.18947,0 0.36217,0.03363 0.51377,0.10105 0.15158,0.06316 0.26321,0.176841 0.33693,0.345311 0.0505,0.113687 0.0695,0.22743 0.0589,0.345331 -0.006,0.117963 -0.0232,0.24216 -0.0505,0.370595 l -0.43797,2.038293 h -0.36218 l 0.43796,-2.038293 c 0.0611,-0.280055 0.0441,-0.490616 -0.0505,-0.631682 -0.0967,-0.138948 -0.28636,-0.21058 -0.57273,-0.21058 -0.11363,0 -0.219,0.0163 -0.32008,0.05053 -0.101,0.03361 -0.19782,0.08006 -0.28636,0.134668 -0.0841,0.05685 -0.15994,0.122238 -0.22741,0.193753 -0.0674,0.07375 -0.12425,0.149541 -0.16849,0.22741 -0.0569,0.10105 -0.099,0.200067 -0.12631,0.294785 -0.0296,0.09046 -0.0547,0.191715 -0.0757,0.303219 z m 0,0"
       style="fill:#f57530;fill-opacity:1;fill-rule:nonzero;stroke:none;stroke-width:0.718731"
       aria-label="Python" />
    <path
       id="path8"
       d="M 60.134008,41.072096 H 177.53484 Z"
       style="fill:#d72228;fill-opacity:1;fill-rule:nonzero;stroke:none;stroke-width:0.718731" />
    <path
       id="path9"
       d="M 60.133937,41.072177 H 177.53475"
       style="fill:none;stroke:#e5e6ed;stroke-width:0.718731;stroke-linecap:butt;stroke-linejoin:miter;stroke-miterlimit:10;stroke-dasharray:none;stroke-opacity:1" />
    <path
       id="path10"
       d="M 29.658191,15.742984 H 16.388932 l -6.633912,11.49111 6.633912,11.491111 h 13.269259 l 6.634631,-11.491111 z"
       style="fill:none;stroke:#e5e6ed;stroke-width:0.592237;stroke-linecap:butt;stroke-linejoin:miter;stroke-miterlimit:10;stroke-dasharray:none;stroke-opacity:1" />
    <path
       id="path11"
       d="m 0,0 c 0,-0.912 -0.74,-1.652 -1.652,-1.652 -0.912,0 -1.652,0.74 -1.652,1.652 0,0.912 0.74,1.652 1.652,1.652 C -0.74,1.652 0,0.912 0,0"
       style="fill:#ffffff;fill-opacity:1;fill-rule:nonzero;stroke:#f57530;stroke-width:0.824;stroke-linecap:butt;stroke-linejoin:miter;stroke-miterlimit:10;stroke-dasharray:none;stroke-opacity:1"
       transform="matrix(0.71873363,0,0,-0.71873363,11.011222,27.234237)"
       clip-path="url(#clipPath12)" />
    <path
       id="path13"
       d="m 0,0 c 0,-1.077 -0.873,-1.95 -1.95,-1.95 -1.078,0 -1.951,0.873 -1.951,1.95 0,1.077 0.873,1.95 1.951,1.95 C -0.873,1.95 0,1.077 0,0 Z"
       style="fill:none;stroke:#e5e6ed;stroke-width:0.412;stroke-linecap:butt;stroke-linejoin:miter;stroke-miterlimit:10;stroke-dasharray:none;stroke-opacity:1"
       transform="matrix(0.71873363,0,0,-0.71873363,11.225621,27.234237)"
       clip-path="url(#clipPath14)" />
    <path
       id="path15"
       d="m 0,0 c 0,-0.912 -0.74,-1.652 -1.652,-1.652 -0.912,0 -1.652,0.74 -1.652,1.652 0,0.912 0.74,1.652 1.652,1.652 C -0.74,1.652 0,0.912 0,0"
       style="fill:#ffffff;fill-opacity:1;fill-rule:nonzero;stroke:#f57530;stroke-width:0.824;stroke-linecap:butt;stroke-linejoin:miter;stroke-miterlimit:10;stroke-dasharray:none;stroke-opacity:1"
       transform="matrix(0.71873363,0,0,-0.71873363,17.487013,15.742984)"
       clip-path="url(#clipPath16)" />
    <path
       id="path17"
       d="m 0,0 c 0,-1.077 -0.873,-1.95 -1.95,-1.95 -1.078,0 -1.951,0.873 -1.951,1.95 0,1.077 0.873,1.95 1.951,1.95 C -0.873,1.95 0,1.077 0,0 Z"
       style="fill:none;stroke:#e5e6ed;stroke-width:0.412;stroke-linecap:butt;stroke-linejoin:miter;stroke-miterlimit:10;stroke-dasharray:none;stroke-opacity:1"
       transform="matrix(0.71873363,0,0,-0.71873363,17.701483,15.742984)"
       clip-path="url(#clipPath18)" />
    <path
       id="path19"
       d="m 0,0 c 0,-0.912 -0.74,-1.652 -1.652,-1.652 -0.912,0 -1.652,0.74 -1.652,1.652 0,0.912 0.74,1.652 1.652,1.652 C -0.74,1.652 0,0.912 0,0"
       style="fill:#ffffff;fill-opacity:1;fill-rule:nonzero;stroke:#f57530;stroke-width:0.824;stroke-linecap:butt;stroke-linejoin:miter;stroke-miterlimit:10;stroke-dasharray:none;stroke-opacity:1"
       transform="matrix(0.71873363,0,0,-0.71873363,30.808956,15.742984)"
       clip-path="url(#clipPath20)" />
    <path
       id="path21"
       d="m 0,0 c 0,-1.077 -0.873,-1.95 -1.95,-1.95 -1.078,0 -1.951,0.873 -1.951,1.95 0,1.077 0.873,1.95 1.951,1.95 C -0.873,1.95 0,1.077 0,0 Z"
       style="fill:none;stroke:#e5e6ed;stroke-width:0.412;stroke-linecap:butt;stroke-linejoin:miter;stroke-miterlimit:10;stroke-dasharray:none;stroke-opacity:1"
       transform="matrix(0.71873363,0,0,-0.71873363,31.023353,15.742984)"
       clip-path="url(#clipPath22)" />
    <path
       id="path23"
       d="m 0,0 c 0,-0.912 -0.74,-1.652 -1.652,-1.652 -0.912,0 -1.652,0.74 -1.652,1.652 0,0.912 0.74,1.652 1.652,1.652 C -0.74,1.652 0,0.912 0,0"
       style="fill:#ffffff;fill-opacity:1;fill-rule:nonzero;stroke:#f57530;stroke-width:0.824;stroke-linecap:butt;stroke-linejoin:miter;stroke-miterlimit:10;stroke-dasharray:none;stroke-opacity:1"
       transform="matrix(0.71873363,0,0,-0.71873363,37.218766,27.234237)"
       clip-path="url(#clipPath24)" />
    <path
       id="path25"
       d="m 0,0 c 0,-1.077 -0.873,-1.95 -1.95,-1.95 -1.078,0 -1.951,0.873 -1.951,1.95 0,1.077 0.873,1.95 1.951,1.95 C -0.873,1.95 0,1.077 0,0 Z"
       style="fill:none;stroke:#e5e6ed;stroke-width:0.412;stroke-linecap:butt;stroke-linejoin:miter;stroke-miterlimit:10;stroke-dasharray:none;stroke-opacity:1"
       transform="matrix(0.71873363,0,0,-0.71873363,37.433164,27.234237)"
       clip-path="url(#clipPath26)" />
    <path
       id="path27"
       d="m 0,0 c 0,-0.912 -0.74,-1.652 -1.652,-1.652 -0.912,0 -1.652,0.74 -1.652,1.652 0,0.912 0.74,1.652 1.652,1.652 C -0.74,1.652 0,0.912 0,0"
       style="fill:#ffffff;fill-opacity:1;fill-rule:nonzero;stroke:#f57530;stroke-width:0.824;stroke-linecap:butt;stroke-linejoin:miter;stroke-miterlimit:10;stroke-dasharray:none;stroke-opacity:1"
       transform="matrix(0.71873363,0,0,-0.71873363,30.808883,38.623725)"
       clip-path="url(#clipPath28)" />
    <path
       id="path29"
       d="m 0,0 c 0,-1.077 -0.873,-1.95 -1.95,-1.95 -1.078,0 -1.951,0.873 -1.951,1.95 0,1.077 0.873,1.95 1.951,1.95 C -0.873,1.95 0,1.077 0,0 Z"
       style="fill:none;stroke:#e5e6ed;stroke-width:0.412;stroke-linecap:butt;stroke-linejoin:miter;stroke-miterlimit:10;stroke-dasharray:none;stroke-opacity:1"
       transform="matrix(0.71873363,0,0,-0.71873363,31.023353,38.623725)"
       clip-path="url(#clipPath30)" />
    <path
       id="path31"
       d="m 0,0 c 0,-0.912 -0.74,-1.652 -1.652,-1.652 -0.912,0 -1.652,0.74 -1.652,1.652 0,0.912 0.74,1.652 1.652,1.652 C -0.74,1.652 0,0.912 0,0"
       style="fill:#ffffff;fill-opacity:1;fill-rule:nonzero;stroke:#f57530;stroke-width:0.824;stroke-linecap:butt;stroke-linejoin:miter;stroke-miterlimit:10;stroke-dasharray:none;stroke-opacity:1"
       transform="matrix(0.71873363,0,0,-0.71873363,17.487013,38.72543)"
       clip-path="url(#clipPath32)" />
    <path
       id="path33"
       d="m 0,0 c 0,-1.077 -0.873,-1.95 -1.95,-1.95 -1.078,0 -1.951,0.873 -1.951,1.95 0,1.077 0.873,1.95 1.951,1.95 C -0.873,1.95 0,1.077 0,0 Z"
       style="fill:none;stroke:#e5e6ed;stroke-width:0.412;stroke-linecap:butt;stroke-linejoin:miter;stroke-miterlimit:10;stroke-dasharray:none;stroke-opacity:1"
       transform="matrix(0.71873363,0,0,-0.71873363,17.70141,38.72543)"
       clip-path="url(#clipPath34)" />
    <path
       id="path35"
       d="m 0,0 h -18.462 l -9.23,-15.988 9.23,-15.988 H 0 l 9.231,15.988 z"
       style="fill:none;stroke:#e5e6ed;stroke-width:0.82367093;stroke-linecap:butt;stroke-linejoin:miter;stroke-miterlimit:10;stroke-dasharray:none;stroke-opacity:1"
       transform="matrix(0.71873363,0,0,-0.71873363,39.771924,9.9038608)"
       clip-path="url(#clipPath36)" />
    <path
       id="path37"
       d="m 0,0 c 0,-0.912 -0.74,-1.652 -1.652,-1.652 -0.912,0 -1.652,0.74 -1.652,1.652 0,0.912 0.74,1.652 1.652,1.652 C -0.74,1.652 0,0.912 0,0"
       style="fill:#ffffff;fill-opacity:1;fill-rule:nonzero;stroke:#e5e6ed;stroke-width:0.824;stroke-linecap:butt;stroke-linejoin:miter;stroke-miterlimit:10;stroke-dasharray:none;stroke-opacity:1"
       transform="matrix(0.71873363,0,0,-0.71873363,21.125026,21.395035)"
       clip-path="url(#clipPath38)" />
    <path
       id="path39"
       d="m 0,0 c 0,-1.077 -0.873,-1.95 -1.95,-1.95 -1.078,0 -1.951,0.873 -1.951,1.95 0,1.077 0.873,1.95 1.951,1.95 C -0.873,1.95 0,1.077 0,0 Z"
       style="fill:none;stroke:#e5e6ed;stroke-width:0.412;stroke-linecap:butt;stroke-linejoin:miter;stroke-miterlimit:10;stroke-dasharray:none;stroke-opacity:1"
       transform="matrix(0.71873363,0,0,-0.71873363,21.339425,21.395035)"
       clip-path="url(#clipPath40)" />
    <path
       id="path41"
       d="m 0,0 c 0,-0.912 -0.74,-1.652 -1.652,-1.652 -0.912,0 -1.652,0.74 -1.652,1.652 0,0.912 0.74,1.652 1.652,1.652 C -0.74,1.652 0,0.912 0,0"
       style="fill:#ffffff;fill-opacity:1;fill-rule:nonzero;stroke:#e5e6ed;stroke-width:0.824;stroke-linecap:butt;stroke-linejoin:miter;stroke-miterlimit:10;stroke-dasharray:none;stroke-opacity:1"
       transform="matrix(0.71873363,0,0,-0.71873363,27.600817,9.9038608)"
       clip-path="url(#clipPath42)" />
    <path
       id="path43"
       d="m 0,0 c 0,-1.077 -0.873,-1.95 -1.95,-1.95 -1.078,0 -1.951,0.873 -1.951,1.95 0,1.077 0.873,1.95 1.951,1.95 C -0.873,1.95 0,1.077 0,0 Z"
       style="fill:none;stroke:#e5e6ed;stroke-width:0.412;stroke-linecap:butt;stroke-linejoin:miter;stroke-miterlimit:10;stroke-dasharray:none;stroke-opacity:1"
       transform="matrix(0.71873363,0,0,-0.71873363,27.815214,9.9038608)"
       clip-path="url(#clipPath44)" />
    <path
       id="path45"
       d="m 0,0 c 0,-0.912 -0.74,-1.652 -1.652,-1.652 -0.912,0 -1.652,0.74 -1.652,1.652 0,0.912 0.74,1.652 1.652,1.652 C -0.74,1.652 0,0.912 0,0"
       style="fill:#ffffff;fill-opacity:1;fill-rule:nonzero;stroke:#e5e6ed;stroke-width:0.824;stroke-linecap:butt;stroke-linejoin:miter;stroke-miterlimit:10;stroke-dasharray:none;stroke-opacity:1"
       transform="matrix(0.71873363,0,0,-0.71873363,40.922688,9.9038608)"
       clip-path="url(#clipPath46)" />
    <path
       id="path47"
       d="m 0,0 c 0,-1.077 -0.873,-1.95 -1.95,-1.95 -1.078,0 -1.951,0.873 -1.951,1.95 0,1.077 0.873,1.95 1.951,1.95 C -0.873,1.95 0,1.077 0,0 Z"
       style="fill:none;stroke:#e5e6ed;stroke-width:0.412;stroke-linecap:butt;stroke-linejoin:miter;stroke-miterlimit:10;stroke-dasharray:none;stroke-opacity:1"
       transform="matrix(0.71873363,0,0,-0.71873363,41.137087,9.9038608)"
       clip-path="url(#clipPath48)" />
    <path
       id="path49"
       d="m 0,0 c 0,-0.912 -0.74,-1.652 -1.652,-1.652 -0.912,0 -1.652,0.74 -1.652,1.652 0,0.912 0.74,1.652 1.652,1.652 C -0.74,1.652 0,0.912 0,0"
       style="fill:#ffffff;fill-opacity:1;fill-rule:nonzero;stroke:#e5e6ed;stroke-width:0.824;stroke-linecap:butt;stroke-linejoin:miter;stroke-miterlimit:10;stroke-dasharray:none;stroke-opacity:1"
       transform="matrix(0.71873363,0,0,-0.71873363,47.332496,21.395035)"
       clip-path="url(#clipPath50)" />
    <path
       id="path51"
       d="m 0,0 c 0,-1.077 -0.873,-1.95 -1.95,-1.95 -1.078,0 -1.951,0.873 -1.951,1.95 0,1.077 0.873,1.95 1.951,1.95 C -0.873,1.95 0,1.077 0,0 Z"
       style="fill:none;stroke:#e5e6ed;stroke-width:0.412;stroke-linecap:butt;stroke-linejoin:miter;stroke-miterlimit:10;stroke-dasharray:none;stroke-opacity:1"
       transform="matrix(0.71873363,0,0,-0.71873363,47.546899,21.395035)"
       clip-path="url(#clipPath52)" />
    <path
       id="path53"
       d="m 0,0 c 0,-0.912 -0.74,-1.652 -1.652,-1.652 -0.912,0 -1.652,0.74 -1.652,1.652 0,0.912 0.74,1.652 1.652,1.652 C -0.74,1.652 0,0.912 0,0"
       style="fill:#ffffff;fill-opacity:1;fill-rule:nonzero;stroke:#e5e6ed;stroke-width:0.824;stroke-linecap:butt;stroke-linejoin:miter;stroke-miterlimit:10;stroke-dasharray:none;stroke-opacity:1"
       transform="matrix(0.71873363,0,0,-0.71873363,40.922688,32.784521)"
       clip-path="url(#clipPath54)" />
    <path
       id="path55"
       d="m 0,0 c 0,-1.077 -0.873,-1.95 -1.95,-1.95 -1.078,0 -1.951,0.873 -1.951,1.95 0,1.077 0.873,1.95 1.951,1.95 C -0.873,1.95 0,1.077 0,0 Z"
       style="fill:none;stroke:#e5e6ed;stroke-width:0.412;stroke-linecap:butt;stroke-linejoin:miter;stroke-miterlimit:10;stroke-dasharray:none;stroke-opacity:1"
       transform="matrix(0.71873363,0,0,-0.71873363,41.137087,32.784521)"
       clip-path="url(#clipPath56)" />
    <path
       id="path57"
       d="m 0,0 c 0,-0.912 -0.74,-1.652 -1.652,-1.652 -0.912,0 -1.652,0.74 -1.652,1.652 0,0.912 0.74,1.652 1.652,1.652 C -0.74,1.652 0,0.912 0,0"
       style="fill:#ffffff;fill-opacity:1;fill-rule:nonzero;stroke:#e5e6ed;stroke-width:0.824;stroke-linecap:butt;stroke-linejoin:miter;stroke-miterlimit:10;stroke-dasharray:none;stroke-opacity:1"
       transform="matrix(0.71873363,0,0,-0.71873363,27.600817,32.886288)"
       clip-path="url(#clipPath58)" />
    <path
       id="path59"
       d="m 0,0 c 0,-1.077 -0.873,-1.95 -1.95,-1.95 -1.078,0 -1.951,0.873 -1.951,1.95 0,1.077 0.873,1.95 1.951,1.95 C -0.873,1.95 0,1.077 0,0 Z"
       style="fill:none;stroke:#e5e6ed;stroke-width:0.412;stroke-linecap:butt;stroke-linejoin:miter;stroke-miterlimit:10;stroke-dasharray:none;stroke-opacity:1"
       transform="matrix(0.71873363,0,0,-0.71873363,27.815214,32.886288)"
       clip-path="url(#clipPath60)" />
    <path
       id="path61"
       d="m 0,0 c 1.885,2.479 4.866,4.079 8.22,4.079 0.011,0 0.022,0 0.032,0"
       style="fill:none;stroke:#e5e6ed;stroke-width:0.368;stroke-linecap:butt;stroke-linejoin:miter;stroke-miterlimit:10;stroke-dasharray:none;stroke-opacity:1"
       transform="matrix(0.71873363,0,0,-0.71873363,16.714804,11.819139)"
       clip-path="url(#clipPath62)" />
    <path
       id="path63"
       d="m 0,0 -2.373,-2.301 0.904,3.18 z"
       style="fill:#e5e6ed;fill-opacity:1;fill-rule:nonzero;stroke:none"
       transform="matrix(0.71873363,0,0,-0.71873363,17.48277,11.790391)"
       clip-path="url(#clipPath64)" />
    <path
       id="path65"
       d="M 0,0 3.268,0.496 0.19,1.701 Z"
       style="fill:#e5e6ed;fill-opacity:1;fill-rule:nonzero;stroke:none"
       transform="matrix(0.71873363,0,0,-0.71873363,22.250787,9.4859788)"
       clip-path="url(#clipPath66)" />
    <path
       id="path67"
       d="m 0,0 c -1.885,-2.479 -4.866,-4.079 -8.22,-4.079 -0.011,0 -0.022,0 -0.032,0"
       style="fill:none;stroke:#e5e6ed;stroke-width:0.368;stroke-linecap:butt;stroke-linejoin:miter;stroke-miterlimit:10;stroke-dasharray:none;stroke-opacity:1"
       transform="matrix(0.71873363,0,0,-0.71873363,39.043414,36.259965)"
       clip-path="url(#clipPath68)" />
    <path
       id="path69"
       d="M 0,0 2.373,2.301 1.469,-0.879 Z"
       style="fill:#e5e6ed;fill-opacity:1;fill-rule:nonzero;stroke:none"
       transform="matrix(0.71873363,0,0,-0.71873363,38.275448,36.28863)"
       clip-path="url(#clipPath70)" />
    <path
       id="path71"
       d="M 0,0 -3.268,-0.496 -0.19,-1.701 Z"
       style="fill:#e5e6ed;fill-opacity:1;fill-rule:nonzero;stroke:none"
       transform="matrix(0.71873363,0,0,-0.71873363,33.598577,38.593042)"
       clip-path="url(#clipPath72)" />
    <path
       id="path73"
       d="m 0,0 h -48.883 c -5.277,0 -9.593,4.317 -9.593,9.593 v 35.744 c 0,5.276 4.316,9.593 9.593,9.593 L 0,54.93 c 5.276,0 9.593,-4.317 9.593,-9.593 V 9.593 C 9.593,4.317 5.276,0 0,0 Z"
       style="fill:none;stroke:#e5e6ed;stroke-width:4;stroke-linecap:butt;stroke-linejoin:miter;stroke-miterlimit:10;stroke-dasharray:none;stroke-opacity:1"
       transform="matrix(0.71873363,0,0,-0.71873363,45.55155,43.882708)"
       clip-path="url(#clipPath74)" />
    <path
       id="path75"
       d="M 61.454,470.143 H 40.615 v 6.583 h 20.839 z"
       style="fill:#e5e6ed;fill-opacity:1;fill-rule:nonzero;stroke:none"
       transform="matrix(0.71873363,0,0,-0.71873363,-8.695807,387.74449)"
       clip-path="url(#clipPath76)" />
    <path
       id="path77"
       d="M 72.272,467.263 H 29.797 v 6.171 h 42.475 z"
       style="fill:#e5e6ed;fill-opacity:1;fill-rule:nonzero;stroke:none"
       transform="matrix(0.71873363,0,0,-0.71873363,-8.695807,388.80283)"
       clip-path="url(#clipPath78)" />
  </g>
</svg>
